<svg xmlns="http://www.w3.org/2000/svg" viewBox="0 0 512 512">
  <defs>
    <linearGradient id="g" x1="0" y1="0" x2="1" y2="1">
      <stop offset="0%" stop-color="#5eead4"/>
      <stop offset="100%" stop-color="#2dd4bf"/>
    </linearGradient>
  </defs>
  <rect width="512" height="512" rx="96" fill="#0a0a0b"/>
  <rect x="64" y="120" width="384" height="312" rx="36" fill="url(#g)"/>
  <rect x="64" y="120" width="384" height="80" rx="36" fill="#0a0a0b" opacity="0.18"/>
  <circle cx="160" cy="100" r="22" fill="#0a0a0b"/>
  <circle cx="352" cy="100" r="22" fill="#0a0a0b"/>
  <rect x="148" y="80" width="24" height="60" rx="8" fill="#0a0a0b"/>
  <rect x="340" y="80" width="24" height="60" rx="8" fill="#0a0a0b"/>
  <g fill="#0a0a0b">
    <rect x="120" y="240" width="56" height="40" rx="6"/>
    <rect x="228" y="240" width="56" height="40" rx="6"/>
    <rect x="336" y="240" width="56" height="40" rx="6" fill-opacity="0.35"/>
    <rect x="120" y="300" width="56" height="40" rx="6" fill-opacity="0.35"/>
    <rect x="228" y="300" width="56" height="40" rx="6"/>
    <rect x="336" y="300" width="56" height="40" rx="6"/>
    <rect x="120" y="360" width="56" height="40" rx="6"/>
    <rect x="228" y="360" width="56" height="40" rx="6" fill-opacity="0.35"/>
    <rect x="336" y="360" width="56" height="40" rx="6"/>
  </g>
</svg>
